<svg width="300" height="300" viewBox="0 0 300 300" fill="none" xmlns="http://www.w3.org/2000/svg">
  <rect x="0" y="260" width="300" height="40" fill="#228B22" />
  <rect x="0" y="280" width="300" height="20" fill="#006400" />
  <rect x="30" y="140" width="80" height="120" fill="#A52A2A" />
  <rect x="10" y="140" width="20" height="120" fill="#8B0000" />
  <path d="M10 140 L60 80 L110 140" fill="#8B0000" />
  <rect x="50" y="180" width="40" height="80" fill="#5C4033" />
  <rect x="50" y="180" width="40" height="10" fill="#3E2723" />
  <rect x="65" y="190" width="10" height="70" fill="#3E2723" />
  <rect x="140" y="100" width="80" height="160" fill="#465D75" />
  <rect x="140" y="100" width="20" height="160" fill="#2C3E50" />
  <rect x="140" y="80" width="80" height="20" fill="#2C3E50" />

  <rect x="160" y="130" width="50" height="110" fill="#111111" />

  <rect x="170" y="140" width="10" height="10" fill="#00FF00" />
  <rect x="190" y="140" width="10" height="10" fill="#00FF00" />
  <rect x="170" y="170" width="30" height="10" fill="#1E90FF" />
  <rect x="170" y="200" width="10" height="10" fill="#FF4500" />
  <rect x="190" y="200" width="10" height="10" fill="#00FF00" />
  <rect x="170" y="220" width="30" height="10" fill="#555555" />
  <rect x="170" y="40" width="20" height="40" fill="#1E90FF" />

  <rect x="160" y="0" width="40" height="30" fill="#0000CD" />
  <rect x="170" y="10" width="20" height="10" fill="#00BFFF" />
  <rect x="130" y="30" width="40" height="10" fill="#1E90FF" />
  <rect x="110" y="10" width="30" height="30" fill="#4169E1" />
  <rect x="115" y="15" width="10" height="10" fill="#00FFFF" />
  <rect x="190" y="50" width="40" height="10" fill="#1E90FF" />
  <rect x="220" y="30" width="30" height="30" fill="#4169E1" />
  <rect x="235" y="45" width="10" height="10" fill="#00FFFF" />
  <rect x="100" y="20" width="160" height="60" fill="#FFFFFF" fill-opacity="0.8" />
  <rect x="80" y="40" width="40" height="30" fill="#FFFFFF" fill-opacity="0.8" />
  <rect x="240" y="30" width="40" height="40" fill="#FFFFFF" fill-opacity="0.8" />
</svg>