<svg id="eMRWwbXuo2Y1" xmlns="http://www.w3.org/2000/svg" xmlns:xlink="http://www.w3.org/1999/xlink" viewBox="0 0 413 300" shape-rendering="geometricPrecision" text-rendering="geometricPrecision" style="background-color:rgba(255,255,255,0)"><style><![CDATA[#eMRWwbXuo2Y26 {animation: eMRWwbXuo2Y26_f_p 3000ms linear infinite normal forwards}@keyframes eMRWwbXuo2Y26_f_p { 0% {fill: #c1c1c1} 30% {fill: #c1c1c1} 33.333333% {fill: #342182} 83.333333% {fill: #342182} 100% {fill: #c1c1c1}} #eMRWwbXuo2Y27 {animation: eMRWwbXuo2Y27_f_p 3000ms linear infinite normal forwards}@keyframes eMRWwbXuo2Y27_f_p { 0% {fill: #efefef} 30% {fill: #efefef} 33.333333% {fill: #6740ff} 83.333333% {fill: #6740ff} 100% {fill: #efefef}} #eMRWwbXuo2Y28 {animation: eMRWwbXuo2Y28_f_p 3000ms linear infinite normal forwards}@keyframes eMRWwbXuo2Y28_f_p { 0% {fill: #e3e3e3} 30% {fill: #e3e3e3} 33.333333% {fill: #482db3} 83.333333% {fill: #482db3} 100% {fill: #e3e3e3}} #eMRWwbXuo2Y33 {animation: eMRWwbXuo2Y33_f_p 3000ms linear infinite normal forwards}@keyframes eMRWwbXuo2Y33_f_p { 0% {fill: #c1c1c1} 30% {fill: #c1c1c1} 33.333333% {fill: #342182} 83.333333% {fill: #342182} 100% {fill: #c1c1c1}} #eMRWwbXuo2Y34 {animation: eMRWwbXuo2Y34_f_p 3000ms linear infinite normal forwards}@keyframes eMRWwbXuo2Y34_f_p { 0% {fill: #efefef} 30% {fill: #efefef} 33.333333% {fill: #6740ff} 83.333333% {fill: #6740ff} 100% {fill: #efefef}} #eMRWwbXuo2Y35 {animation: eMRWwbXuo2Y35_f_p 3000ms linear infinite normal forwards}@keyframes eMRWwbXuo2Y35_f_p { 0% {fill: #e3e3e3} 30% {fill: #e3e3e3} 33.333333% {fill: #482db3} 83.333333% {fill: #482db3} 100% {fill: #e3e3e3}} #eMRWwbXuo2Y39 {animation: eMRWwbXuo2Y39_f_p 3000ms linear infinite normal forwards}@keyframes eMRWwbXuo2Y39_f_p { 0% {fill: #c1c1c1} 30% {fill: #c1c1c1} 33.333333% {fill: #342182} 83.333333% {fill: #342182} 100% {fill: #c1c1c1}} #eMRWwbXuo2Y40 {animation: eMRWwbXuo2Y40_f_p 3000ms linear infinite normal forwards}@keyframes eMRWwbXuo2Y40_f_p { 0% {fill: #efefef} 30% {fill: #efefef} 33.333333% {fill: #6740ff} 83.333333% {fill: #6740ff} 100% {fill: #efefef}} #eMRWwbXuo2Y41 {animation: eMRWwbXuo2Y41_f_p 3000ms linear infinite normal forwards}@keyframes eMRWwbXuo2Y41_f_p { 0% {fill: #e3e3e3} 30% {fill: #e3e3e3} 33.333333% {fill: #482db3} 83.333333% {fill: #482db3} 100% {fill: #e3e3e3}} #eMRWwbXuo2Y46 {animation: eMRWwbXuo2Y46_f_p 3000ms linear infinite normal forwards}@keyframes eMRWwbXuo2Y46_f_p { 0% {fill: #c1c1c1} 30% {fill: #c1c1c1} 33.333333% {fill: #342182} 83.333333% {fill: #342182} 100% {fill: #c1c1c1}} #eMRWwbXuo2Y47 {animation: eMRWwbXuo2Y47_f_p 3000ms linear infinite normal forwards}@keyframes eMRWwbXuo2Y47_f_p { 0% {fill: #efefef} 30% {fill: #efefef} 33.333333% {fill: #6740ff} 83.333333% {fill: #6740ff} 100% {fill: #efefef}} #eMRWwbXuo2Y48 {animation: eMRWwbXuo2Y48_f_p 3000ms linear infinite normal forwards}@keyframes eMRWwbXuo2Y48_f_p { 0% {fill: #e3e3e3} 30% {fill: #e3e3e3} 33.333333% {fill: #482db3} 83.333333% {fill: #482db3} 100% {fill: #e3e3e3}} #eMRWwbXuo2Y57_to {animation: eMRWwbXuo2Y57_to__to 3000ms linear infinite normal forwards}@keyframes eMRWwbXuo2Y57_to__to { 0% {transform: translate(372.568359px,177.883325px)} 10% {transform: translate(372.568359px,177.883325px);animation-timing-function: cubic-bezier(0.39,0.575,0.565,1)} 26.666667% {transform: translate(260.9257px,177.883325px)} 100% {transform: translate(260.9257px,177.883325px)}} #eMRWwbXuo2Y57_ts {animation: eMRWwbXuo2Y57_ts__ts 3000ms linear infinite normal forwards}@keyframes eMRWwbXuo2Y57_ts__ts { 0% {transform: scale(0.312519,0.312519)} 10% {transform: scale(0.312519,0.312519)} 13.333333% {transform: scale(1.366023,1.366023)} 26.666667% {transform: scale(-0.15466,-0.15466)} 100% {transform: scale(-0.15466,-0.15466)}} #eMRWwbXuo2Y57 {animation: eMRWwbXuo2Y57_c_o 3000ms linear infinite normal forwards}@keyframes eMRWwbXuo2Y57_c_o { 0% {opacity: 0} 6.666667% {opacity: 0} 10% {opacity: 1} 26.666667% {opacity: 1} 30% {opacity: 0} 100% {opacity: 0}} #eMRWwbXuo2Y66_to {animation: eMRWwbXuo2Y66_to__to 3000ms linear infinite normal forwards}@keyframes eMRWwbXuo2Y66_to__to { 0% {transform: translate(372.568359px,177.883325px)} 13.333333% {transform: translate(372.568359px,177.883325px);animation-timing-function: cubic-bezier(0.39,0.575,0.565,1)} 30% {transform: translate(260.9257px,177.883325px)} 100% {transform: translate(260.9257px,177.883325px)}} #eMRWwbXuo2Y66_ts {animation: eMRWwbXuo2Y66_ts__ts 3000ms linear infinite normal forwards}@keyframes eMRWwbXuo2Y66_ts__ts { 0% {transform: scale(0.312519,0.312519)} 13.333333% {transform: scale(0.312519,0.312519)} 16.666667% {transform: scale(1.366023,1.366023)} 30% {transform: scale(-0.15466,-0.15466)} 100% {transform: scale(-0.15466,-0.15466)}} #eMRWwbXuo2Y66 {animation: eMRWwbXuo2Y66_c_o 3000ms linear infinite normal forwards}@keyframes eMRWwbXuo2Y66_c_o { 0% {opacity: 0} 10% {opacity: 0} 13.333333% {opacity: 1} 30% {opacity: 1} 33.333333% {opacity: 0} 100% {opacity: 0}} #eMRWwbXuo2Y75_to {animation: eMRWwbXuo2Y75_to__to 3000ms linear infinite normal forwards}@keyframes eMRWwbXuo2Y75_to__to { 0% {transform: translate(372.568359px,177.883325px)} 6.666667% {transform: translate(372.568359px,177.883325px);animation-timing-function: cubic-bezier(0.39,0.575,0.565,1)} 23.333333% {transform: translate(260.9257px,177.883325px)} 100% {transform: translate(260.9257px,177.883325px)}} #eMRWwbXuo2Y75_ts {animation: eMRWwbXuo2Y75_ts__ts 3000ms linear infinite normal forwards}@keyframes eMRWwbXuo2Y75_ts__ts { 0% {transform: scale(0.312519,0.312519)} 6.666667% {transform: scale(0.312519,0.312519)} 10% {transform: scale(1.366023,1.366023)} 23.333333% {transform: scale(-0.15466,-0.15466)} 100% {transform: scale(-0.15466,-0.15466)}} #eMRWwbXuo2Y75 {animation: eMRWwbXuo2Y75_c_o 3000ms linear infinite normal forwards}@keyframes eMRWwbXuo2Y75_c_o { 0% {opacity: 0} 3.333333% {opacity: 0} 6.666667% {opacity: 1} 23.333333% {opacity: 1} 26.666667% {opacity: 0} 100% {opacity: 0}} #eMRWwbXuo2Y84_to {animation: eMRWwbXuo2Y84_to__to 3000ms linear infinite normal forwards}@keyframes eMRWwbXuo2Y84_to__to { 0% {transform: translate(372.568359px,177.883325px)} 3.333333% {transform: translate(372.568359px,177.883325px);animation-timing-function: cubic-bezier(0.39,0.575,0.565,1)} 20% {transform: translate(260.9257px,177.883325px)} 100% {transform: translate(260.9257px,177.883325px)}} #eMRWwbXuo2Y84_ts {animation: eMRWwbXuo2Y84_ts__ts 3000ms linear infinite normal forwards}@keyframes eMRWwbXuo2Y84_ts__ts { 0% {transform: scale(0.312519,0.312519)} 3.333333% {transform: scale(0.312519,0.312519)} 6.666667% {transform: scale(1.366023,1.366023)} 20% {transform: scale(-0.15466,-0.15466)} 100% {transform: scale(-0.15466,-0.15466)}} #eMRWwbXuo2Y84 {animation: eMRWwbXuo2Y84_c_o 3000ms linear infinite normal forwards}@keyframes eMRWwbXuo2Y84_c_o { 0% {opacity: 0} 3.333333% {opacity: 1} 20% {opacity: 1} 23.333333% {opacity: 0} 100% {opacity: 0}}]]></style><defs><path id="eMRWwbXuo2Y2" d="M128,0L256,64v20L128,148L0,84v-20L128,0Z"/><linearGradient id="eMRWwbXuo2Y6-fill" x1="0.502092" y1="-0.009433" x2="0.502092" y2="1.012248" spreadMethod="pad" gradientUnits="objectBoundingBox" gradientTransform="translate(0 0)"><stop id="eMRWwbXuo2Y6-fill-0" offset="0%" stop-color="#f9ca96"/><stop id="eMRWwbXuo2Y6-fill-1" offset="44.7917%" stop-color="#f5569f"/><stop id="eMRWwbXuo2Y6-fill-2" offset="100%" stop-color="#5f24b1"/></linearGradient><linearGradient id="eMRWwbXuo2Y10-fill" x1="0.502092" y1="-0.009433" x2="0.502092" y2="1.012248" spreadMethod="pad" gradientUnits="objectBoundingBox" gradientTransform="translate(0 0)"><stop id="eMRWwbXuo2Y10-fill-0" offset="0%" stop-color="#f9ca96"/><stop id="eMRWwbXuo2Y10-fill-1" offset="44.7917%" stop-color="#f5569f"/><stop id="eMRWwbXuo2Y10-fill-2" offset="100%" stop-color="#5f24b1"/></linearGradient></defs><g transform="translate(0 109.326324)"><g transform="translate(-355-462)"><g transform="translate(355 462.5)"><path d="M87.175856,150.132374l-.016202-.009189-.016444-.008948-83.985329-44.84782c-.832279-.444227-.857525-1.628188-.044979-2.107721L82.908907,56.067977c.001693-.000967.003627-.002176.005562-.003143c13.002284-7.487051,29.961985-11.365391,46.876223-11.531281c16.919316-.16589,33.660652,3.384056,46.231284,10.614292c8.588549,4.950821,14.06364,10.931079,16.62647,17.157995c2.552189,6.201041,2.262244,12.750063-.863305,18.999469-1.167758,2.334791.220542,5.513299,3.097014,5.689104l57.333331,3.502791c1.206692.073514,1.571843,1.675826.515081,2.263454L127.270665,172.557009c-.371439.206516-.823888.203131-1.191941-.009189L95.044501,154.652752l-.001693-.000967-7.866952-4.519411Z" fill="url(#eMRWwbXuo2Y6-fill)"/><path d="M129.780887,43.533601c-17.081145.167527-33.632718,4.058881-46.335589,11.083295l-1.03253.582838L2.604664,102.29748c-1.484601.876153-1.43845,3.039418.082344,3.851138L86.682516,151.00221l7.865846,4.518785l31.030835,17.893123c.672267.387812,1.498888.394134,2.177401.016888L253.216723,103.63453c1.93043-1.073443,1.263784-4.001191-.940428-4.135476l-57.333158-3.50278c-2.017532-.123308-3.177463-2.41653-2.263624-4.243641c3.25042-6.49908,3.559661-13.349853.893673-19.827393-2.743254-6.665293-8.54689-12.741153-17.052629-17.644238-12.428978-7.148761-29.193006-10.919442-46.73967-10.747401ZM3.621153,104.019905L83.361682,56.959261c12.573174-7.237963,29.222026-11.256899,46.438817-11.425756c17.210593-.168746,33.626272,3.523582,45.722065,10.480705c8.144298,4.694735,13.639135,10.447311,16.201141,16.672228c2.443505,5.936971,2.161503,12.18429-.832943,18.17156-1.530762,3.060574.421414,6.92009,3.930389,7.134552l57.333354,3.502793c.209654.012772.272729.289781.090079.391346L126.784509,171.683137c-.064273.035735-.142548.035137-.206095-.001521L95.538947,153.783542l-7.917791-4.547694L3.628924,104.384307c-.143922-.076818-.148288-.281474-.007771-.364402Z" fill="#3f2bb4"/><path d="M251.175652,102.289588c1.612952-.918923,3.615238.245208,3.615238,2.10095v7.432398c0,.854115-.449789,1.644631-1.184928,2.080153l-126.04366,74.723474c-.761497.451482-1.709198.450757-2.469969-.002418L2.390314,115.577706c-.732431-.436247-1.181204-1.225554-1.181204-2.077976v-7.42853c0-1.857192,2.006614-3.021323,3.618745-2.099256l120.300267,68.800529c.742635.424639,1.654788.425365,2.398149.001693l123.649381-70.484578Z" fill="#fff" fill-rule="evenodd"/><path d="M125.128122,172.772473l-.600202,1.049507.600202-1.049507Zm2.398149.001693l-.598993-1.050475.598993,1.050475ZM2.390314,115.577706l-.618484,1.038867.618484-1.038867Zm125.171988,73.048857l.616646,1.040077-.616646-1.040077Zm-2.469969-.002418l-.618581,1.039109.618581-1.039109Zm126.083319-86.334557l-.597301-1.050233.597301,1.050233Zm2.43031,11.613501l.616646,1.040076-.616646-1.040076ZM256,111.822936v-7.432398h-2.41822v7.432398h2.41822ZM128.178948,189.66664l126.04366-74.723475-1.233292-2.080153-126.043418,74.723475l1.23305,2.080153Zm-2.468277-2.081362L3.008822,114.538597L1.77183,116.616573l122.701922,73.046681l1.236919-2.077976ZM2.41822,113.49973v-7.42853h-2.41822v7.42853h2.41822Zm1.809384-8.478279L124.52792,173.82198l1.200404-2.099015L5.42813,102.922436l-1.200526,2.099015Zm246.350747-3.782096L126.927278,171.723691l1.197744,2.100949L251.77537,103.340063l-1.197019-2.100708ZM124.52792,173.82198c1.114074.637201,2.482061.638168,3.597102.00266l-1.197744-2.100949c-.371681.211836-.827515.211594-1.198954-.000726l-1.200404,2.099015ZM2.41822,106.0712c0-.928596,1.003319-1.510662,1.809384-1.049749l1.200526-2.099015C3.009934,101.539457,0,103.285411,0,106.0712h2.41822Zm.590602,8.467397c-.366216-.217882-.590602-.612777-.590602-1.038867h-2.41822c0,1.278512.673162,2.462715,1.77183,3.116843l1.236992-2.077976Zm123.937076,73.04789c-.38087.22562-.854841.225378-1.235227-.001209l-1.236919,2.077976c1.1414.679278,2.562587.680729,3.705196.003386l-1.23305-2.080153ZM256,104.390538c0-2.783371-3.003429-4.52981-5.421649-3.151183l1.197019,2.100708c.805267-.459462,1.80641.122604,1.80641,1.050475h2.41822Zm-2.41822,7.432398c0,.427058-.224894.822437-.592464,1.040076l1.233292,2.080153C255.325317,114.290004,256,113.103867,256,111.822936h-2.41822Z" fill="#3f2bb4"/><path d="M87.175856,106.604418l-.016202-.009189-.016444-.008948L3.157881,61.738461c-.832279-.444227-.857525-1.628187-.044979-2.10772L82.908907,12.54007c.001693-.001064.003627-.002152.005562-.003216C95.916753,5.049803,112.876454,1.171412,129.790692,1.005587c16.919316-.165875,33.660652,3.384115,46.231284,10.614229c8.588549,4.950846,14.06364,10.931224,16.62647,17.158068c2.552189,6.201041,2.262244,12.750063-.863305,18.999469-1.167758,2.334791.220542,5.513299,3.097014,5.689104l57.333331,3.502791c1.206692.073514,1.571843,1.675826.515081,2.263454L127.270665,129.029053c-.371439.206516-.823888.203131-1.191941-.009189L95.044501,111.124796l-.001693-.000967-7.866952-4.519411Z" fill="url(#eMRWwbXuo2Y10-fill)"/><path d="M129.780888,0.005635c-17.081049.16746-33.632656,4.058831-46.343316,11.087838l-1.060837.59996-79.77207,47.07609c-1.484602.876154-1.438451,3.039419.082343,3.851139l83.995508,44.853592l7.865846,4.518785l31.030835,17.893123c.672267.387812,1.498888.394134,2.177401.016888L253.216723,60.106574c1.93043-1.073443,1.263784-4.001191-.940428-4.135476l-57.333158-3.50278c-2.017532-.123308-3.177463-2.41653-2.263624-4.243641c3.25042-6.49908,3.559661-13.349853.893673-19.827393-2.743283-6.665287-8.546963-12.741244-17.052636-17.644314-12.429036-7.148675-29.193101-10.91936-46.739662-10.747335ZM3.621153,60.491949l79.775234-47.07888c12.53853-7.219786,29.187417-11.23874,46.404108-11.40753c17.210496-.16873,33.626218,3.523603,45.722067,10.480641c8.144225,4.694716,13.639109,10.44739,16.201145,16.672305c2.443503,5.936968,2.161501,12.184287-.832945,18.171557-1.530762,3.060574.421414,6.92009,3.930389,7.134552l57.333354,3.502793c.209654.012772.272729.289781.090079.391346L126.784509,128.155181c-.064273.035736-.142548.035137-.206095-.001521L95.538947,110.255586l-7.917791-4.547694L3.628924,60.856351c-.143922-.076818-.148288-.281474-.007771-.364402Z" fill="#3f2bb4"/><path d="M251.175652,58.761632c1.612952-.918923,3.615238.245208,3.615238,2.10095v7.432398c0,.854115-.449789,1.644631-1.184928,2.080153l-126.04366,74.723474c-.761497.451482-1.709198.450757-2.469969-.002418L2.390314,72.04975c-.732431-.436247-1.181204-1.225554-1.181204-2.077976v-7.42853c0-1.857192,2.006614-3.021323,3.618745-2.099256l120.300267,68.800529c.742635.424639,1.654788.425365,2.398149.001693L251.175652,58.761632Z" fill="#fff" fill-rule="evenodd"/><path d="M125.128122,129.244517l-.600202,1.049507.600202-1.049507Zm2.398149.001693l-.598993-1.050475.598993,1.050475ZM2.390314,72.04975L1.77183,73.088617l.618484-1.038867Zm125.171988,73.048857l.616646,1.040077-.616646-1.040077Zm-2.469969-.002418l-.618581,1.039109.618581-1.039109ZM251.175652,58.761632l-.597301-1.050232.597301,1.050232Zm2.43031,11.613501l.616646,1.040076-.616646-1.040076ZM256,68.29498v-7.432398h-2.41822v7.432398h2.41822ZM128.178948,146.138684l126.04366-74.723475-1.233292-2.080152-126.043418,74.723474l1.23305,2.080153Zm-2.468277-2.081362L3.008822,71.010641L1.77183,73.088617l122.701922,73.046681l1.236919-2.077976ZM2.41822,69.971774v-7.42853h-2.41822v7.42853h2.41822Zm1.809384-8.478279L124.52792,130.294024l1.200404-2.099015L5.42813,59.394481L4.227604,61.493495ZM250.578351,57.7114L126.927278,128.195735l1.197744,2.100949L251.77537,59.812107L250.578351,57.7114ZM124.52792,130.294024c1.114074.637201,2.482061.638168,3.597102.00266l-1.197744-2.100949c-.371681.211836-.827515.211594-1.198954-.000726l-1.200404,2.099015ZM2.41822,62.543244c0-.928596,1.003319-1.510661,1.809384-1.049749L5.42813,59.394481C3.009934,58.011501,0,59.757455,0,62.543244h2.41822Zm.590602,8.467397c-.366216-.217882-.590602-.612777-.590602-1.038867h-2.41822c0,1.278513.673162,2.462715,1.77183,3.116843l1.236992-2.077976Zm123.937076,73.04789c-.38087.22562-.854841.225378-1.235227-.001209l-1.236919,2.077976c1.1414.679278,2.562587.680729,3.705196.003386l-1.23305-2.080153ZM256,60.862582c0-2.783371-3.003429-4.52981-5.421649-3.151182l1.197019,2.100707c.805267-.459462,1.80641.122604,1.80641,1.050475h2.41822Zm-2.41822,7.432398c0,.427058-.224894.822437-.592464,1.040077l1.233292,2.080152C255.325317,70.762048,256,69.575911,256,68.29498h-2.41822Z" fill="#3f2bb4"/></g></g></g><g><g transform="translate(-355-335)"><g transform="translate(355 325)"><g transform="translate(0 10)"><g mask="url(#eMRWwbXuo2Y23)"><polygon points="128,148 0,84 0,64 128,128" fill="#fff" fill-rule="evenodd"/><polygon points="128,148 256,84 256,64 128,128" fill="#fff" fill-rule="evenodd"/><polygon points="0,64 128,0 256,64 128,128" fill="#fff" fill-rule="evenodd" stroke="#482db3"/><path d="M128,0.559017l127.5,63.75v19.381966l-127.5,63.75-127.5-63.75v-19.381966l127.5-63.75Z" fill="none" fill-rule="evenodd" stroke="#482db3"/><mask id="eMRWwbXuo2Y23" mask-type="luminance"><use width="256" height="148" xlink:href="#eMRWwbXuo2Y2" fill="#fff" fill-rule="evenodd"/></mask></g></g></g></g></g><g transform="translate(50 44)"><polygon id="eMRWwbXuo2Y26" points="32,37 0,21 0,16 32,32" fill="#c1c1c1" fill-rule="evenodd"/><polygon id="eMRWwbXuo2Y27" points="32,37 64,21 64,16 32,32" fill="#efefef" fill-rule="evenodd"/><polygon id="eMRWwbXuo2Y28" points="0,16 32,0 64,16 32,32" fill="#e3e3e3" fill-rule="evenodd"/></g><g transform="translate(96 20)"><g transform="translate(-405-559)"><g transform="translate(355 515)"><g transform="translate(50 44)"><polygon id="eMRWwbXuo2Y33" points="32,37 0,21 0,16 32,32" fill="#c1c1c1" fill-rule="evenodd"/><polygon id="eMRWwbXuo2Y34" points="32,37 64,21 64,16 32,32" fill="#efefef" fill-rule="evenodd"/><polygon id="eMRWwbXuo2Y35" points="0,16 32,0 64,16 32,32" fill="#e3e3e3" fill-rule="evenodd"/></g></g></g></g><g transform="translate(-311-491)"><g transform="translate(355 515)"><g transform="translate(50 44)"><polygon id="eMRWwbXuo2Y39" points="32,37 0,21 0,16 32,32" fill="#c1c1c1" fill-rule="evenodd"/><polygon id="eMRWwbXuo2Y40" points="32,37 64,21 64,16 32,32" fill="#efefef" fill-rule="evenodd"/><polygon id="eMRWwbXuo2Y41" points="0,16 32,0 64,16 32,32" fill="#e3e3e3" fill-rule="evenodd"/></g></g></g><g transform="translate(140 44)"><g transform="translate(-405-559)"><g transform="translate(355 515)"><g transform="translate(50 44)"><polygon id="eMRWwbXuo2Y46" points="32,37 0,21 0,16 32,32" fill="#c1c1c1" fill-rule="evenodd"/><polygon id="eMRWwbXuo2Y47" points="32,37 64,21 64,16 32,32" fill="#efefef" fill-rule="evenodd"/><polygon id="eMRWwbXuo2Y48" points="0,16 32,0 64,16 32,32" fill="#e3e3e3" fill-rule="evenodd"/></g></g></g></g><g transform="translate(259.981073 117.999836)"><g transform="translate(-623-1066)"><g transform="translate(355 1057)"><g transform="translate(268 9)"><line x1="117" y1="60" x2="0.5" y2="60" fill="none" fill-rule="evenodd" stroke="#000" stroke-width="2"/><path d="M142.7263,0c1.55342,0,2.961449.918033,3.58605,2.339537v0l5.069582,11.509392C152.456169,16.285162,153,18.872403,153,21.535043v0v7.53311c0,1.736543-1.020381,3.238823-2.490337,3.946853C151.990439,33.803811,153,35.362606,153,37.152978v0v7.191259c0,2.581864-2.099966,4.684518-4.684519,4.684518v0h-26.822831v6.601361l1.881899-.002692c.996121,0,1.806499.810378,1.806499,1.806499v0v4.759905c0,.996121-.810378,1.806499-1.806499,1.806499v0h-4.751786c-.996121,0-1.806499-.810378-1.806499-1.806499v0-1.887275h-22.892243c-.271916,0-.492678-.220762-.492678-.492678s.220762-.492677.492678-.492677v0l22.892243.002692v-1.887275c0-.996121.810378-1.806499,1.806499-1.806499v0h1.884587v-6.601361h-26.822831C91.102654,49.028755,89,46.928789,89,44.344237v0-7.191259c0-1.79306,1.012318-3.349167,2.490337-4.137972C90.020381,32.306907,89,30.807315,89,29.068153v0-7.196084c0-2.851416.654202-5.715928,1.895339-8.284352v0L96.379415,2.215685C97.030929,0.869581,98.41742,0,99.911636,0v0ZM123.377099,56.612797h-4.751786c-.45229,0-.821129.368833-.821129.82113v0v4.75985c0,.45229.368832.821129.821129.821129v0h4.751786c.45229,0,.82113-.368832.82113-.821129v0-4.75985c0-.45229-.368833-.82113-.82113-.82113v0Zm24.938727-23.161454h-54.628481c-2.040694,0-3.701838,1.661143-3.701838,3.701837v0v7.188502c0,2.043451,1.661144,3.701838,3.701838,3.701838v0l54.625724.002692c2.040694,0,3.701906-1.661144,3.701906-3.701838v0-7.191194c0-2.040694-1.661143-3.701837-3.699149-3.701837v0Zm-5.931996,3.83355c1.908778,0,3.462197,1.55342,3.462197,3.462198s-1.553419,3.462198-3.462197,3.462198-3.462198-1.55342-3.462198-3.462198s1.55342-3.462198,3.462198-3.462198Zm-45.643888.632699c.271916,0,.489986.220762.492678.492677v0v4.673698c0,.271916-.220762.492678-.492678.492678s-.492677-.220762-.492677-.492678v0-4.673698c0-.271915.220762-.492677.492677-.492677Zm7.796389,0c.271916,0,.492678.220762.492678.492677v0v4.673698c0,.271916-.220762.492678-.492678.492678s-.492677-.220762-.492677-.492678v0-4.673698c0-.271915.220762-.492677.492677-.492677Zm7.799835,0c.271916,0,.489986.220762.492678.492677v0v4.673698c0,.271916-.220762.492678-.492678.492678s-.492677-.220762-.492677-.492678v0-4.673698c0-.271915.220762-.492677.492677-.492677Zm7.796389,0c.271916,0,.492678.220762.492678.492677v0v4.673698c0,.271916-.220762.492678-.492678.492678s-.492678-.220762-.492678-.492678v0-4.673698c0-.271915.220763-.492677.492678-.492677Zm7.799835,0c.271916,0,.489985.220762.492678.492677v0v4.673698c0,.271916-.220762.492678-.492678.492678s-.492677-.220762-.492677-.492678v0-4.673698c0-.271915.220762-.492677.492677-.492677Zm14.45144.352601c-1.364989,0-2.476898,1.111909-2.476898,2.476898s1.111909,2.476897,2.476898,2.476897c1.367676,0,2.476897-1.111909,2.476897-2.476897s-1.111909-2.476898-2.476897-2.476898Zm9.302831-20.150623h-61.297316c-.263845,1.233072-.403838,2.493024-.403838,3.752977v0v7.196083c0,1.873835,1.523783,3.397619,3.400306,3.397619v0h.301532l54.625724.002692h.301531c1.876523,0,3.400513-1.526471,3.400513-3.400306v0-7.532632c0-1.157672-.113072-2.296461-.328452-3.416433v0Zm-9.302831,4.492646c1.908778,0,3.462197,1.550731,3.462197,3.462198c0,1.908778-1.553419,3.462197-3.462197,3.462197s-3.462198-1.553419-3.462198-3.462197s1.55342-3.462198,3.462198-3.462198Zm-45.643888.629942c.271916,0,.489986.220762.492678.492677v0v4.673698c0,.271916-.220762.492678-.492678.492678s-.492677-.220762-.492677-.492678v0-4.673698c0-.271915.220762-.492677.492677-.492677Zm7.796389,0c.271916,0,.492678.220762.492678.492677v0v4.673698c0,.271916-.220762.492678-.492678.492678s-.492677-.220762-.492677-.492678v0-4.673698c0-.271915.220762-.492677.492677-.492677Zm7.799835,0c.271916,0,.489986.220762.492678.492677v0v4.673698c0,.271916-.220762.492678-.492678.492678s-.492677-.220762-.492677-.492678v0-4.673698c0-.271915.220762-.492677.492677-.492677Zm7.796389,0c.271916,0,.492678.220762.492678.492677v0v4.673698c0,.271916-.220762.492678-.492678.492678s-.492678-.220762-.492678-.492678v0-4.673698c0-.271915.220763-.492677.492678-.492677Zm7.799835,0c.271916,0,.489985.220762.492678.492677v0v4.673698c0,.271916-.220762.492678-.492678.492678s-.492677-.220762-.492677-.492678v0-4.673698c0-.271915.220762-.492677.492677-.492677Zm14.45144.35267c-1.364989,0-2.476898,1.111909-2.476898,2.476898s1.111909,2.476897,2.476898,2.476897c1.367676,0,2.476897-1.111909,2.476897-2.476897s-1.111909-2.476898-2.476897-2.476898Zm.339713-22.609045h-42.814664c-1.119972,0-2.156461.651583-2.643756,1.661143v0L91.781185,14.016128c-.481926.998809-.864226,2.043382-1.154984,3.117591v0l60.841745.002692c-.247703-.982682-.573453-1.949167-.988057-2.888772v0L145.410375,2.738454c-.46839-1.066152-1.523783-1.752671-2.686832-1.752671v0Z"/></g></g></g></g><g transform="translate(-16.273444 102.786021)"><g transform="translate(15.464106-102.582896)"><g id="eMRWwbXuo2Y57_to" transform="translate(372.568359,177.883325)"><g id="eMRWwbXuo2Y57_ts" transform="scale(0.312519,0.312519)"><g id="eMRWwbXuo2Y57" transform="translate(-16.608107,-11.999984)" opacity="0"><g transform="translate(-660-1114)"><g transform="translate(355 1057)"><g transform="translate(309.5 62)"><polygon points="12.108108,14 0,7.945946 0,6.054054 12.108108,12.108108" fill="#342182" fill-rule="evenodd"/><polygon points="12.108108,14 24.216216,7.945946 24.216216,6.054054 12.108108,12.108108" fill="#6740ff" fill-rule="evenodd"/><polygon points="0,6.054054 12.108108,0 24.216216,6.054054 12.108108,12.108108" fill="#482db3" fill-rule="evenodd"/><path d="M12.108108,-2.236068L26.216216,4.817986v4.364028L12.108108,16.236068L-2,9.182014v-4.364028l14.108108-7.054054Z" fill="none" fill-rule="evenodd" stroke="#fff" stroke-width="4"/></g></g></g></g></g></g></g><g transform="translate(15.464106-102.582896)"><g id="eMRWwbXuo2Y66_to" transform="translate(372.568359,177.883325)"><g id="eMRWwbXuo2Y66_ts" transform="scale(0.312519,0.312519)"><g id="eMRWwbXuo2Y66" transform="translate(-16.608107,-11.999984)" opacity="0"><g transform="translate(-660-1114)"><g transform="translate(355 1057)"><g transform="translate(309.5 62)"><polygon points="12.108108,14 0,7.945946 0,6.054054 12.108108,12.108108" fill="#342182" fill-rule="evenodd"/><polygon points="12.108108,14 24.216216,7.945946 24.216216,6.054054 12.108108,12.108108" fill="#6740ff" fill-rule="evenodd"/><polygon points="0,6.054054 12.108108,0 24.216216,6.054054 12.108108,12.108108" fill="#482db3" fill-rule="evenodd"/><path d="M12.108108,-2.236068L26.216216,4.817986v4.364028L12.108108,16.236068L-2,9.182014v-4.364028l14.108108-7.054054Z" fill="none" fill-rule="evenodd" stroke="#fff" stroke-width="4"/></g></g></g></g></g></g></g><g transform="translate(15.464106-102.582896)"><g id="eMRWwbXuo2Y75_to" transform="translate(372.568359,177.883325)"><g id="eMRWwbXuo2Y75_ts" transform="scale(0.312519,0.312519)"><g id="eMRWwbXuo2Y75" transform="translate(-16.608107,-11.999984)" opacity="0"><g transform="translate(-660-1114)"><g transform="translate(355 1057)"><g transform="translate(309.5 62)"><polygon points="12.108108,14 0,7.945946 0,6.054054 12.108108,12.108108" fill="#342182" fill-rule="evenodd"/><polygon points="12.108108,14 24.216216,7.945946 24.216216,6.054054 12.108108,12.108108" fill="#6740ff" fill-rule="evenodd"/><polygon points="0,6.054054 12.108108,0 24.216216,6.054054 12.108108,12.108108" fill="#482db3" fill-rule="evenodd"/><path d="M12.108108,-2.236068L26.216216,4.817986v4.364028L12.108108,16.236068L-2,9.182014v-4.364028l14.108108-7.054054Z" fill="none" fill-rule="evenodd" stroke="#fff" stroke-width="4"/></g></g></g></g></g></g></g><g transform="translate(15.464106-102.582896)"><g id="eMRWwbXuo2Y84_to" transform="translate(372.568359,177.883325)"><g id="eMRWwbXuo2Y84_ts" transform="scale(0.312519,0.312519)"><g id="eMRWwbXuo2Y84" transform="translate(-16.608107,-11.999984)" opacity="0"><g transform="translate(-660-1114)"><g transform="translate(355 1057)"><g transform="translate(309.5 62)"><polygon points="12.108108,14 0,7.945946 0,6.054054 12.108108,12.108108" fill="#342182" fill-rule="evenodd"/><polygon points="12.108108,14 24.216216,7.945946 24.216216,6.054054 12.108108,12.108108" fill="#6740ff" fill-rule="evenodd"/><polygon points="0,6.054054 12.108108,0 24.216216,6.054054 12.108108,12.108108" fill="#482db3" fill-rule="evenodd"/><path d="M12.108108,-2.236068L26.216216,4.817986v4.364028L12.108108,16.236068L-2,9.182014v-4.364028l14.108108-7.054054Z" fill="none" fill-rule="evenodd" stroke="#fff" stroke-width="4"/></g></g></g></g></g></g></g></g></svg>