<svg id="ecorZi8pSlq1" xmlns="http://www.w3.org/2000/svg" xmlns:xlink="http://www.w3.org/1999/xlink" viewBox="0 0 413 300" shape-rendering="geometricPrecision" text-rendering="geometricPrecision" style="background-color:rgba(255,255,255,0)"><style><![CDATA[#ecorZi8pSlq26 {animation-name: ecorZi8pSlq26__m, ecorZi8pSlq26_f_p;animation-duration: 5500ms;animation-fill-mode: forwards;animation-timing-function: linear;animation-direction: normal;animation-iteration-count: infinite;}@keyframes ecorZi8pSlq26__m { 0% {d: path('M32,37L0,21L0,16L32,32')} 12.727273% {d: path('M32,37L0,21L0,16L32,32')} 14.545455% {d: path('M32,37L0,21L0,20.967288L32,37.062541')} 16.363636% {d: path('M32,37L0,21L0,16L32,32')} 63.636364% {d: path('M32,37L0,21L0,16L32,32')} 65.454545% {d: path('M32,37L0,21L0,20.967288L32,37.062541')} 67.272727% {d: path('M32,37L0,21L0,16L32,32')} 100% {d: path('M32,37L0,21L0,16L32,32')}}@keyframes ecorZi8pSlq26_f_p { 0% {fill: #342182} 12.727273% {fill: #342182} 14.545455% {fill: #b01660;animation-timing-function: cubic-bezier(0.435,0,0.61,0.425)} 63.636364% {fill: #b01660} 65.454545% {fill: #342182} 100% {fill: #342182}} #ecorZi8pSlq27 {animation-name: ecorZi8pSlq27__m, ecorZi8pSlq27_f_p;animation-duration: 5500ms;animation-fill-mode: forwards;animation-timing-function: linear;animation-direction: normal;animation-iteration-count: infinite;}@keyframes ecorZi8pSlq27__m { 0% {d: path('M32,37L64,21L64,16L32,32')} 12.727273% {d: path('M32,37L64,21L64,16L32,32')} 14.545455% {d: path('M32,37L64,21L64,21.000001L32,37.06254')} 16.363636% {d: path('M32,37L64,21L64,16L32,32')} 63.636364% {d: path('M32,37L64,21L64,16L32,32')} 65.454545% {d: path('M32,37L64,21L64,21.000001L32,37.06254')} 67.272727% {d: path('M32,37L64,21L64,16L32,32')} 100% {d: path('M32,37L64,21L64,16L32,32')}}@keyframes ecorZi8pSlq27_f_p { 0% {fill: #6740ff} 12.727273% {fill: #6740ff} 14.545455% {fill: #ff54a6;animation-timing-function: cubic-bezier(0.435,0,0.61,0.425)} 63.636364% {fill: #ff54a6} 65.454545% {fill: #6740ff} 100% {fill: #6740ff}} #ecorZi8pSlq28_to {animation: ecorZi8pSlq28_to__to 5500ms linear infinite normal forwards}@keyframes ecorZi8pSlq28_to__to { 0% {transform: translate(32px,16px)} 12.727273% {transform: translate(32px,16px)} 14.545455% {transform: translate(32px,21px)} 16.363636% {transform: translate(32px,16px)} 63.636364% {transform: translate(32px,16px)} 65.454545% {transform: translate(32px,21px)} 67.272727% {transform: translate(32px,16px)} 100% {transform: translate(32px,16px)}} #ecorZi8pSlq28 {animation: ecorZi8pSlq28_f_p 5500ms linear infinite normal forwards}@keyframes ecorZi8pSlq28_f_p { 0% {fill: #482db3} 12.727273% {fill: #482db3} 14.545455% {fill: #482db3} 16.363636% {fill: #fc208a} 63.636364% {fill: #fc208a} 65.454545% {fill: #fc208a;animation-timing-function: cubic-bezier(0.39,0.575,0.565,1)} 67.272727% {fill: #482db3} 100% {fill: #482db3}} #ecorZi8pSlq33 {animation-name: ecorZi8pSlq33__m, ecorZi8pSlq33_f_p;animation-duration: 5500ms;animation-fill-mode: forwards;animation-timing-function: linear;animation-direction: normal;animation-iteration-count: infinite;}@keyframes ecorZi8pSlq33__m { 0% {d: path('M32,37L0,21L0,16L32,32')} 20% {d: path('M32,37L0,21L0,16L32,32')} 21.818182% {d: path('M32,37L0,21L0,21.136898L32,37.06254')} 23.636364% {d: path('M32,37L0,21L0,16L32,32')} 70.909091% {d: path('M32,37L0,21L0,16L32,32')} 72.727273% {d: path('M32,37L0,21L0,21.136898L32,37.06254')} 74.545455% {d: path('M32,37L0,21L0,16L32,32')} 100% {d: path('M32,37L0,21L0,16L32,32')}}@keyframes ecorZi8pSlq33_f_p { 0% {fill: #342182} 20% {fill: #342182} 21.818182% {fill: #b01660;animation-timing-function: cubic-bezier(0.435,0,0.61,0.425)} 70.909091% {fill: #b01660} 72.727273% {fill: #342182} 100% {fill: #342182}} #ecorZi8pSlq34 {animation-name: ecorZi8pSlq34__m, ecorZi8pSlq34_f_p;animation-duration: 5500ms;animation-fill-mode: forwards;animation-timing-function: linear;animation-direction: normal;animation-iteration-count: infinite;}@keyframes ecorZi8pSlq34__m { 0% {d: path('M32,37L64,21L64,16L32,32')} 20% {d: path('M32,37L64,21L64,16L32,32')} 21.818182% {d: path('M32,37L64,21L64,21L32.000001,37.083305')} 23.636364% {d: path('M32,37L64,21L64,16L32,32')} 70.909091% {d: path('M32,37L64,21L64,16L32,32')} 72.727273% {d: path('M32,37L64,21L64,21L32.000001,37.083305')} 74.545455% {d: path('M32,37L64,21L64,16L32,32')} 100% {d: path('M32,37L64,21L64,16L32,32')}}@keyframes ecorZi8pSlq34_f_p { 0% {fill: #6740ff} 20% {fill: #6740ff} 21.818182% {fill: #ff54a6;animation-timing-function: cubic-bezier(0.435,0,0.61,0.425)} 70.909091% {fill: #ff54a6} 72.727273% {fill: #6740ff} 100% {fill: #6740ff}} #ecorZi8pSlq35_to {animation: ecorZi8pSlq35_to__to 5500ms linear infinite normal forwards}@keyframes ecorZi8pSlq35_to__to { 0% {transform: translate(32px,16px)} 20% {transform: translate(32px,16px)} 21.818182% {transform: translate(32px,21px)} 23.636364% {transform: translate(32px,16px)} 70.909091% {transform: translate(32px,16px)} 72.727273% {transform: translate(32px,21px)} 74.545455% {transform: translate(32px,16px)} 100% {transform: translate(32px,16px)}} #ecorZi8pSlq35 {animation: ecorZi8pSlq35_f_p 5500ms linear infinite normal forwards}@keyframes ecorZi8pSlq35_f_p { 0% {fill: #482db3} 20% {fill: #482db3} 21.818182% {fill: #482db3} 23.636364% {fill: #fc208a} 70.909091% {fill: #fc208a} 72.727273% {fill: #fc208a;animation-timing-function: cubic-bezier(0.39,0.575,0.565,1)} 74.545455% {fill: #482db3} 100% {fill: #482db3}} #ecorZi8pSlq39 {animation-name: ecorZi8pSlq39__m, ecorZi8pSlq39_f_p;animation-duration: 5500ms;animation-fill-mode: forwards;animation-timing-function: linear;animation-direction: normal;animation-iteration-count: infinite;}@keyframes ecorZi8pSlq39__m { 0% {d: path('M32,37L0,21L0,16L32,32')} 5.454545% {d: path('M32,37L0,21L0,16L32,32')} 7.272727% {d: path('M32,37L0,21L0,21L32,36.86977')} 9.090909% {d: path('M32,37L0,21L0,16L32,32')} 56.363636% {d: path('M32,37L0,21L0,16L32,32')} 58.181818% {d: path('M32,37L0,21L0,21L32,36.86977')} 60% {d: path('M32,37L0,21L0,16L32,32')} 100% {d: path('M32,37L0,21L0,16L32,32')}}@keyframes ecorZi8pSlq39_f_p { 0% {fill: #342182} 5.454545% {fill: #342182} 7.272727% {fill: #b01660;animation-timing-function: cubic-bezier(0.435,0,0.61,0.425)} 56.363636% {fill: #b01660} 58.181818% {fill: #342182} 100% {fill: #342182}} #ecorZi8pSlq40 {animation-name: ecorZi8pSlq40__m, ecorZi8pSlq40_f_p;animation-duration: 5500ms;animation-fill-mode: forwards;animation-timing-function: linear;animation-direction: normal;animation-iteration-count: infinite;}@keyframes ecorZi8pSlq40__m { 0% {d: path('M32,37L64,21L64,16L32,32')} 5.454545% {d: path('M32,37L64,21L64,16L32,32')} 7.272727% {d: path('M32,37L64,21L64.000001,20.999999L32,36.86977')} 9.090909% {d: path('M32,37L64,21L64,16L32,32')} 56.363636% {d: path('M32,37L64,21L64,16L32,32')} 58.181818% {d: path('M32,37L64,21L64.000001,20.999999L32,36.86977')} 60% {d: path('M32,37L64,21L64,16L32,32')} 100% {d: path('M32,37L64,21L64,16L32,32')}}@keyframes ecorZi8pSlq40_f_p { 0% {fill: #6740ff} 5.454545% {fill: #6740ff} 7.272727% {fill: #ff54a6;animation-timing-function: cubic-bezier(0.435,0,0.61,0.425)} 56.363636% {fill: #ff54a6} 58.181818% {fill: #6740ff} 100% {fill: #6740ff}} #ecorZi8pSlq41_to {animation: ecorZi8pSlq41_to__to 5500ms linear infinite normal forwards}@keyframes ecorZi8pSlq41_to__to { 0% {transform: translate(32px,16px)} 5.454545% {transform: translate(32px,16px)} 7.272727% {transform: translate(32px,21px)} 9.090909% {transform: translate(32px,16px)} 56.363636% {transform: translate(32px,16px)} 58.181818% {transform: translate(32px,21px)} 60% {transform: translate(32px,16px)} 100% {transform: translate(32px,16px)}} #ecorZi8pSlq41 {animation: ecorZi8pSlq41_f_p 5500ms linear infinite normal forwards}@keyframes ecorZi8pSlq41_f_p { 0% {fill: #482db3} 5.454545% {fill: #482db3} 7.272727% {fill: #482db3} 9.090909% {fill: #fc208a} 56.363636% {fill: #fc208a} 58.181818% {fill: #fc208a;animation-timing-function: cubic-bezier(0.39,0.575,0.565,1)} 60% {fill: #482db3} 100% {fill: #482db3}} #ecorZi8pSlq46 {animation-name: ecorZi8pSlq46__m, ecorZi8pSlq46_f_p;animation-duration: 5500ms;animation-fill-mode: forwards;animation-timing-function: linear;animation-direction: normal;animation-iteration-count: infinite;}@keyframes ecorZi8pSlq46__m { 0% {d: path('M32,37L0,21L0,21L32,37.03332')} 1.818182% {d: path('M32,37L0,21L0,16L32,32')} 49.090909% {d: path('M32,37L0,21L0,16L32,32')} 50.909091% {d: path('M32,37L0,21L0,21L32,37.03332')} 52.727273% {d: path('M32,37L0,21L0,16L32,32')} 100% {d: path('M32,37L0,21L0,16L32,32')}}@keyframes ecorZi8pSlq46_f_p { 0% {fill: #342182} 1.818182% {fill: #b01660;animation-timing-function: cubic-bezier(0.435,0,0.61,0.425)} 49.090909% {fill: #b01660} 50.909091% {fill: #342182} 100% {fill: #342182}} #ecorZi8pSlq47 {animation-name: ecorZi8pSlq47__m, ecorZi8pSlq47_f_p;animation-duration: 5500ms;animation-fill-mode: forwards;animation-timing-function: linear;animation-direction: normal;animation-iteration-count: infinite;}@keyframes ecorZi8pSlq47__m { 0% {d: path('M32,37L64,21L64,21L32,37.077259')} 1.818182% {d: path('M32,37L64,21L64,16L32,32')} 49.090909% {d: path('M32,37L64,21L64,16L32,32')} 50.909091% {d: path('M32,37L64,21L64,21L32,37.077259')} 52.727273% {d: path('M32,37L64,21L64,16L32,32')} 100% {d: path('M32,37L64,21L64,16L32,32')}}@keyframes ecorZi8pSlq47_f_p { 0% {fill: #6740ff} 1.818182% {fill: #ff54a6;animation-timing-function: cubic-bezier(0.435,0,0.61,0.425)} 49.090909% {fill: #ff54a6} 50.909091% {fill: #6740ff} 100% {fill: #6740ff}} #ecorZi8pSlq48_to {animation: ecorZi8pSlq48_to__to 5500ms linear infinite normal forwards}@keyframes ecorZi8pSlq48_to__to { 0% {transform: translate(32px,21px)} 1.818182% {transform: translate(32px,16px)} 49.090909% {transform: translate(32px,16px)} 50.909091% {transform: translate(32px,21px)} 52.727273% {transform: translate(32px,16px)} 100% {transform: translate(32px,16px)}} #ecorZi8pSlq48 {animation: ecorZi8pSlq48_f_p 5500ms linear infinite normal forwards}@keyframes ecorZi8pSlq48_f_p { 0% {fill: #482db3} 1.818182% {fill: #fc208a} 49.090909% {fill: #fc208a} 50.909091% {fill: #fc208a;animation-timing-function: cubic-bezier(0.39,0.575,0.565,1)} 52.727273% {fill: #482db3} 100% {fill: #482db3}} #ecorZi8pSlq49_to {animation: ecorZi8pSlq49_to__to 5500ms linear infinite normal forwards}@keyframes ecorZi8pSlq49_to__to { 0% {transform: translate(198px,80px)} 1.818182% {transform: translate(198px,75px)} 3.636364% {transform: translate(198px,75px);animation-timing-function: cubic-bezier(0.42,0,0.58,1)} 5.454545% {transform: translate(153.027468px,101px)} 7.272727% {transform: translate(153.027468px,106px)} 9.090909% {transform: translate(153.027468px,101px)} 10.909091% {transform: translate(153.027468px,101px)} 12.727273% {transform: translate(106px,76px)} 14.545455% {transform: translate(106px,79px)} 16.363636% {transform: translate(106px,76px);animation-timing-function: cubic-bezier(0.42,0,0.58,1)} 18.181818% {transform: translate(106px,76px);animation-timing-function: cubic-bezier(0.42,0,0.58,1)} 20% {transform: translate(153px,50px)} 21.818182% {transform: translate(153px,55px)} 23.636364% {transform: translate(153px,50px)} 25.454545% {transform: translate(153px,50px)} 27.272727% {transform: translate(198px,75px)} 49.090909% {transform: translate(198px,75px)} 50.909091% {transform: translate(198px,80px)} 52.727273% {transform: translate(198px,75px)} 54.545455% {transform: translate(198px,75px);animation-timing-function: cubic-bezier(0.42,0,0.58,1)} 56.363636% {transform: translate(153.027468px,101px)} 58.181818% {transform: translate(153.027468px,106px)} 60% {transform: translate(153.027468px,101px)} 61.818182% {transform: translate(153.027468px,101px)} 63.636364% {transform: translate(106px,76px)} 65.454545% {transform: translate(106px,79px)} 67.272727% {transform: translate(106px,76px);animation-timing-function: cubic-bezier(0.42,0,0.58,1)} 69.090909% {transform: translate(106px,76px);animation-timing-function: cubic-bezier(0.42,0,0.58,1)} 70.909091% {transform: translate(153px,50px)} 72.727273% {transform: translate(153px,55px)} 74.545455% {transform: translate(153px,50px)} 76.363636% {transform: translate(153px,50px)} 78.181818% {transform: translate(198px,75px)} 100% {transform: translate(198px,75px)}} #ecorZi8pSlq61 {animation-name: ecorZi8pSlq61__m, ecorZi8pSlq61_s_p;animation-duration: 5500ms;animation-fill-mode: forwards;animation-timing-function: linear;animation-direction: normal;animation-iteration-count: infinite;}@keyframes ecorZi8pSlq61__m { 0% {d: path('M0.500001,60.000001L0.5,60')} 27.272727% {d: path('M0.500001,60.000001L0.5,60');animation-timing-function: cubic-bezier(0.47,0,0.745,0.715)} 32.727273% {d: path('M0.500001,60.000001L116.82,60');animation-timing-function: cubic-bezier(0.39,0.575,0.565,1)} 38.181818% {d: path('M116.82,60.000001L116.82,60')} 78.181818% {d: path('M0.500001,60.000001L0.5,60');animation-timing-function: cubic-bezier(0.47,0,0.745,0.715)} 83.636364% {d: path('M0.500001,60.000001L116.82,60');animation-timing-function: cubic-bezier(0.39,0.575,0.565,1)} 89.090909% {d: path('M116.82,60.000001L116.82,60')} 100% {d: path('M116.82,60.000001L116.82,60')}}@keyframes ecorZi8pSlq61_s_p { 0% {stroke: #fc208a} 76.363636% {stroke: #fc208a} 78.181818% {stroke: #482db3} 100% {stroke: #482db3}} #ecorZi8pSlq64_to {animation: ecorZi8pSlq64_to__to 5500ms linear infinite normal forwards}@keyframes ecorZi8pSlq64_to__to { 0% {transform: translate(372.568359px,177.883325px)} 41.818182% {transform: translate(372.568359px,177.883325px);animation-timing-function: cubic-bezier(0.39,0.575,0.565,1)} 50.909091% {transform: translate(260.9257px,177.883325px)} 94.545455% {transform: translate(372.568359px,177.883325px);animation-timing-function: cubic-bezier(0.39,0.575,0.565,1)} 100% {transform: translate(305.582764px,177.883325px)}} #ecorZi8pSlq64_ts {animation: ecorZi8pSlq64_ts__ts 5500ms linear infinite normal forwards}@keyframes ecorZi8pSlq64_ts__ts { 0% {transform: scale(0.312519,0.312519)} 41.818182% {transform: scale(0.312519,0.312519)} 43.636364% {transform: scale(1.366023,1.366023)} 50.909091% {transform: scale(-0.15466,-0.15466)} 94.545455% {transform: scale(0.312519,0.312519)} 96.363636% {transform: scale(1.366023,1.366023)} 100% {transform: scale(0.605682,0.605682)}} #ecorZi8pSlq73_to {animation: ecorZi8pSlq73_to__to 5500ms linear infinite normal forwards}@keyframes ecorZi8pSlq73_to__to { 0% {transform: translate(372.568359px,177.883325px)} 43.636364% {transform: translate(372.568359px,177.883325px);animation-timing-function: cubic-bezier(0.39,0.575,0.565,1)} 52.727273% {transform: translate(260.9257px,177.883325px)} 92.727273% {transform: translate(372.568359px,177.883325px);animation-timing-function: cubic-bezier(0.39,0.575,0.565,1)} 100% {transform: translate(283.254232px,177.883325px)}} #ecorZi8pSlq73_ts {animation: ecorZi8pSlq73_ts__ts 5500ms linear infinite normal forwards}@keyframes ecorZi8pSlq73_ts__ts { 0% {transform: scale(0.312519,0.312519)} 43.636364% {transform: scale(0.312519,0.312519)} 45.454545% {transform: scale(1.366023,1.366023)} 52.727273% {transform: scale(-0.15466,-0.15466)} 92.727273% {transform: scale(0.312519,0.312519)} 94.545455% {transform: scale(1.366023,1.366023)} 100% {transform: scale(0.225511,0.225511)}} #ecorZi8pSlq82_to {animation: ecorZi8pSlq82_to__to 5500ms linear infinite normal forwards}@keyframes ecorZi8pSlq82_to__to { 0% {transform: translate(372.568359px,177.883325px)} 40% {transform: translate(372.568359px,177.883325px);animation-timing-function: cubic-bezier(0.39,0.575,0.565,1)} 49.090909% {transform: translate(260.9257px,177.883325px)} 90.909091% {transform: translate(372.568359px,177.883325px);animation-timing-function: cubic-bezier(0.39,0.575,0.565,1)} 100% {transform: translate(260.9257px,177.883325px)}} #ecorZi8pSlq82_ts {animation: ecorZi8pSlq82_ts__ts 5500ms linear infinite normal forwards}@keyframes ecorZi8pSlq82_ts__ts { 0% {transform: scale(0.312519,0.312519)} 40% {transform: scale(0.312519,0.312519)} 41.818182% {transform: scale(1.366023,1.366023)} 49.090909% {transform: scale(-0.15466,-0.15466)} 90.909091% {transform: scale(0.312519,0.312519)} 92.727273% {transform: scale(1.366023,1.366023)} 100% {transform: scale(-0.15466,-0.15466)}} #ecorZi8pSlq91_to {animation: ecorZi8pSlq91_to__to 5500ms linear infinite normal forwards}@keyframes ecorZi8pSlq91_to__to { 0% {transform: translate(372.568359px,177.883325px)} 38.181818% {transform: translate(372.568359px,177.883325px);animation-timing-function: cubic-bezier(0.39,0.575,0.565,1)} 47.272727% {transform: translate(260.9257px,177.883325px)} 89.090909% {transform: translate(372.568359px,177.883325px);animation-timing-function: cubic-bezier(0.39,0.575,0.565,1)} 98.181818% {transform: translate(260.9257px,177.883325px)} 100% {transform: translate(260.9257px,177.883325px)}} #ecorZi8pSlq91_ts {animation: ecorZi8pSlq91_ts__ts 5500ms linear infinite normal forwards}@keyframes ecorZi8pSlq91_ts__ts { 0% {transform: scale(0.312519,0.312519)} 38.181818% {transform: scale(0.312519,0.312519)} 40% {transform: scale(1.366023,1.366023)} 47.272727% {transform: scale(-0.15466,-0.15466)} 89.090909% {transform: scale(0.312519,0.312519)} 90.909091% {transform: scale(1.366023,1.366023)} 98.181818% {transform: scale(-0.15466,-0.15466)} 100% {transform: scale(-0.15466,-0.15466)}} #ecorZi8pSlq100_to {animation: ecorZi8pSlq100_to__to 5500ms linear infinite normal forwards}@keyframes ecorZi8pSlq100_to__to { 0% {transform: translate(55.019124px,106.634702px)} 27.272727% {transform: translate(55.019124px,106.634702px);animation-timing-function: cubic-bezier(0.445,0.05,0.55,0.95)} 38.181818% {transform: translate(168.189078px,106.63px)} 78.181818% {transform: translate(55.019124px,106.634702px);animation-timing-function: cubic-bezier(0.445,0.05,0.55,0.95)} 89.090909% {transform: translate(168.189078px,106.63px)} 100% {transform: translate(168.189078px,106.63px)}} #ecorZi8pSlq100_ts {animation: ecorZi8pSlq100_ts__ts 5500ms linear infinite normal forwards}@keyframes ecorZi8pSlq100_ts__ts { 0% {transform: scale(0,0)} 27.272727% {transform: scale(0,0);animation-timing-function: cubic-bezier(0.47,0,0.745,0.715)} 32.727273% {transform: scale(1.1,1.1);animation-timing-function: cubic-bezier(0.39,0.575,0.565,1)} 38.181818% {transform: scale(0,0)} 78.181818% {transform: scale(0,0);animation-timing-function: cubic-bezier(0.47,0,0.745,0.715)} 83.636364% {transform: scale(1.1,1.1);animation-timing-function: cubic-bezier(0.39,0.575,0.565,1)} 89.090909% {transform: scale(0,0)} 100% {transform: scale(0,0)}} #ecorZi8pSlq100 {animation: ecorZi8pSlq100_f_p 5500ms linear infinite normal forwards}@keyframes ecorZi8pSlq100_f_p { 0% {fill: #fc208a} 76.363636% {fill: #fc208a} 78.181818% {fill: #482db3} 100% {fill: #482db3}}]]></style><defs><path id="ecorZi8pSlq2" d="M128,0L256,64v20L128,148L0,84v-20L128,0Z"/><linearGradient id="ecorZi8pSlq6-fill" x1="0.502092" y1="-0.009433" x2="0.502092" y2="1.012248" spreadMethod="pad" gradientUnits="objectBoundingBox" gradientTransform="translate(0 0)"><stop id="ecorZi8pSlq6-fill-0" offset="0%" stop-color="#f9ca96"/><stop id="ecorZi8pSlq6-fill-1" offset="44.7917%" stop-color="#f5569f"/><stop id="ecorZi8pSlq6-fill-2" offset="100%" stop-color="#5f24b1"/></linearGradient><linearGradient id="ecorZi8pSlq10-fill" x1="0.502092" y1="-0.009433" x2="0.502092" y2="1.012248" spreadMethod="pad" gradientUnits="objectBoundingBox" gradientTransform="translate(0 0)"><stop id="ecorZi8pSlq10-fill-0" offset="0%" stop-color="#f9ca96"/><stop id="ecorZi8pSlq10-fill-1" offset="44.7917%" stop-color="#f5569f"/><stop id="ecorZi8pSlq10-fill-2" offset="100%" stop-color="#5f24b1"/></linearGradient></defs><g transform="translate(0 109.326324)"><g transform="translate(-355-462)"><g transform="translate(355 462.5)"><path d="M87.175856,150.132374l-.016202-.009189-.016444-.008948-83.985329-44.84782c-.832279-.444227-.857525-1.628188-.044979-2.107721L82.908907,56.067977c.001693-.000967.003627-.002176.005562-.003143c13.002284-7.487051,29.961985-11.365391,46.876223-11.531281c16.919316-.16589,33.660652,3.384056,46.231284,10.614292c8.588549,4.950821,14.06364,10.931079,16.62647,17.157995c2.552189,6.201041,2.262244,12.750063-.863305,18.999469-1.167758,2.334791.220542,5.513299,3.097014,5.689104l57.333331,3.502791c1.206692.073514,1.571843,1.675826.515081,2.263454L127.270665,172.557009c-.371439.206516-.823888.203131-1.191941-.009189L95.044501,154.652752l-.001693-.000967-7.866952-4.519411Z" fill="url(#ecorZi8pSlq6-fill)"/><path d="M129.780887,43.533601c-17.081145.167527-33.632718,4.058881-46.335589,11.083295l-1.03253.582838L2.604664,102.29748c-1.484601.876153-1.43845,3.039418.082344,3.851138L86.682516,151.00221l7.865846,4.518785l31.030835,17.893123c.672267.387812,1.498888.394134,2.177401.016888L253.216723,103.63453c1.93043-1.073443,1.263784-4.001191-.940428-4.135476l-57.333158-3.50278c-2.017532-.123308-3.177463-2.41653-2.263624-4.243641c3.25042-6.49908,3.559661-13.349853.893673-19.827393-2.743254-6.665293-8.54689-12.741153-17.052629-17.644238-12.428978-7.148761-29.193006-10.919442-46.73967-10.747401ZM3.621153,104.019905L83.361682,56.959261c12.573174-7.237963,29.222026-11.256899,46.438817-11.425756c17.210593-.168746,33.626272,3.523582,45.722065,10.480705c8.144298,4.694735,13.639135,10.447311,16.201141,16.672228c2.443505,5.936971,2.161503,12.18429-.832943,18.17156-1.530762,3.060574.421414,6.92009,3.930389,7.134552l57.333354,3.502793c.209654.012772.272729.289781.090079.391346L126.784509,171.683137c-.064273.035735-.142548.035137-.206095-.001521L95.538947,153.783542l-7.917791-4.547694L3.628924,104.384307c-.143922-.076818-.148288-.281474-.007771-.364402Z" fill="#3f2bb4"/><path d="M251.175652,102.289588c1.612952-.918923,3.615238.245208,3.615238,2.10095v7.432398c0,.854115-.449789,1.644631-1.184928,2.080153l-126.04366,74.723474c-.761497.451482-1.709198.450757-2.469969-.002418L2.390314,115.577706c-.732431-.436247-1.181204-1.225554-1.181204-2.077976v-7.42853c0-1.857192,2.006614-3.021323,3.618745-2.099256l120.300267,68.800529c.742635.424639,1.654788.425365,2.398149.001693l123.649381-70.484578Z" fill="#fff" fill-rule="evenodd"/><path d="M125.128122,172.772473l-.600202,1.049507.600202-1.049507Zm2.398149.001693l-.598993-1.050475.598993,1.050475ZM2.390314,115.577706l-.618484,1.038867.618484-1.038867Zm125.171988,73.048857l.616646,1.040077-.616646-1.040077Zm-2.469969-.002418l-.618581,1.039109.618581-1.039109Zm126.083319-86.334557l-.597301-1.050233.597301,1.050233Zm2.43031,11.613501l.616646,1.040076-.616646-1.040076ZM256,111.822936v-7.432398h-2.41822v7.432398h2.41822ZM128.178948,189.66664l126.04366-74.723475-1.233292-2.080153-126.043418,74.723475l1.23305,2.080153Zm-2.468277-2.081362L3.008822,114.538597L1.77183,116.616573l122.701922,73.046681l1.236919-2.077976ZM2.41822,113.49973v-7.42853h-2.41822v7.42853h2.41822Zm1.809384-8.478279L124.52792,173.82198l1.200404-2.099015L5.42813,102.922436l-1.200526,2.099015Zm246.350747-3.782096L126.927278,171.723691l1.197744,2.100949L251.77537,103.340063l-1.197019-2.100708ZM124.52792,173.82198c1.114074.637201,2.482061.638168,3.597102.00266l-1.197744-2.100949c-.371681.211836-.827515.211594-1.198954-.000726l-1.200404,2.099015ZM2.41822,106.0712c0-.928596,1.003319-1.510662,1.809384-1.049749l1.200526-2.099015C3.009934,101.539457,0,103.285411,0,106.0712h2.41822Zm.590602,8.467397c-.366216-.217882-.590602-.612777-.590602-1.038867h-2.41822c0,1.278512.673162,2.462715,1.77183,3.116843l1.236992-2.077976Zm123.937076,73.04789c-.38087.22562-.854841.225378-1.235227-.001209l-1.236919,2.077976c1.1414.679278,2.562587.680729,3.705196.003386l-1.23305-2.080153ZM256,104.390538c0-2.783371-3.003429-4.52981-5.421649-3.151183l1.197019,2.100708c.805267-.459462,1.80641.122604,1.80641,1.050475h2.41822Zm-2.41822,7.432398c0,.427058-.224894.822437-.592464,1.040076l1.233292,2.080153C255.325317,114.290004,256,113.103867,256,111.822936h-2.41822Z" fill="#3f2bb4"/><path d="M87.175856,106.604418l-.016202-.009189-.016444-.008948L3.157881,61.738461c-.832279-.444227-.857525-1.628187-.044979-2.10772L82.908907,12.54007c.001693-.001064.003627-.002152.005562-.003216C95.916753,5.049803,112.876454,1.171412,129.790692,1.005587c16.919316-.165875,33.660652,3.384115,46.231284,10.614229c8.588549,4.950846,14.06364,10.931224,16.62647,17.158068c2.552189,6.201041,2.262244,12.750063-.863305,18.999469-1.167758,2.334791.220542,5.513299,3.097014,5.689104l57.333331,3.502791c1.206692.073514,1.571843,1.675826.515081,2.263454L127.270665,129.029053c-.371439.206516-.823888.203131-1.191941-.009189L95.044501,111.124796l-.001693-.000967-7.866952-4.519411Z" fill="url(#ecorZi8pSlq10-fill)"/><path d="M129.780888,0.005635c-17.081049.16746-33.632656,4.058831-46.343316,11.087838l-1.060837.59996-79.77207,47.07609c-1.484602.876154-1.438451,3.039419.082343,3.851139l83.995508,44.853592l7.865846,4.518785l31.030835,17.893123c.672267.387812,1.498888.394134,2.177401.016888L253.216723,60.106574c1.93043-1.073443,1.263784-4.001191-.940428-4.135476l-57.333158-3.50278c-2.017532-.123308-3.177463-2.41653-2.263624-4.243641c3.25042-6.49908,3.559661-13.349853.893673-19.827393-2.743283-6.665287-8.546963-12.741244-17.052636-17.644314-12.429036-7.148675-29.193101-10.91936-46.739662-10.747335ZM3.621153,60.491949l79.775234-47.07888c12.53853-7.219786,29.187417-11.23874,46.404108-11.40753c17.210496-.16873,33.626218,3.523603,45.722067,10.480641c8.144225,4.694716,13.639109,10.44739,16.201145,16.672305c2.443503,5.936968,2.161501,12.184287-.832945,18.171557-1.530762,3.060574.421414,6.92009,3.930389,7.134552l57.333354,3.502793c.209654.012772.272729.289781.090079.391346L126.784509,128.155181c-.064273.035736-.142548.035137-.206095-.001521L95.538947,110.255586l-7.917791-4.547694L3.628924,60.856351c-.143922-.076818-.148288-.281474-.007771-.364402Z" fill="#3f2bb4"/><path d="M251.175652,58.761632c1.612952-.918923,3.615238.245208,3.615238,2.10095v7.432398c0,.854115-.449789,1.644631-1.184928,2.080153l-126.04366,74.723474c-.761497.451482-1.709198.450757-2.469969-.002418L2.390314,72.04975c-.732431-.436247-1.181204-1.225554-1.181204-2.077976v-7.42853c0-1.857192,2.006614-3.021323,3.618745-2.099256l120.300267,68.800529c.742635.424639,1.654788.425365,2.398149.001693L251.175652,58.761632Z" fill="#fff" fill-rule="evenodd"/><path d="M125.128122,129.244517l-.600202,1.049507.600202-1.049507Zm2.398149.001693l-.598993-1.050475.598993,1.050475ZM2.390314,72.04975L1.77183,73.088617l.618484-1.038867Zm125.171988,73.048857l.616646,1.040077-.616646-1.040077Zm-2.469969-.002418l-.618581,1.039109.618581-1.039109ZM251.175652,58.761632l-.597301-1.050232.597301,1.050232Zm2.43031,11.613501l.616646,1.040076-.616646-1.040076ZM256,68.29498v-7.432398h-2.41822v7.432398h2.41822ZM128.178948,146.138684l126.04366-74.723475-1.233292-2.080152-126.043418,74.723474l1.23305,2.080153Zm-2.468277-2.081362L3.008822,71.010641L1.77183,73.088617l122.701922,73.046681l1.236919-2.077976ZM2.41822,69.971774v-7.42853h-2.41822v7.42853h2.41822Zm1.809384-8.478279L124.52792,130.294024l1.200404-2.099015L5.42813,59.394481L4.227604,61.493495ZM250.578351,57.7114L126.927278,128.195735l1.197744,2.100949L251.77537,59.812107L250.578351,57.7114ZM124.52792,130.294024c1.114074.637201,2.482061.638168,3.597102.00266l-1.197744-2.100949c-.371681.211836-.827515.211594-1.198954-.000726l-1.200404,2.099015ZM2.41822,62.543244c0-.928596,1.003319-1.510661,1.809384-1.049749L5.42813,59.394481C3.009934,58.011501,0,59.757455,0,62.543244h2.41822Zm.590602,8.467397c-.366216-.217882-.590602-.612777-.590602-1.038867h-2.41822c0,1.278513.673162,2.462715,1.77183,3.116843l1.236992-2.077976Zm123.937076,73.04789c-.38087.22562-.854841.225378-1.235227-.001209l-1.236919,2.077976c1.1414.679278,2.562587.680729,3.705196.003386l-1.23305-2.080153ZM256,60.862582c0-2.783371-3.003429-4.52981-5.421649-3.151182l1.197019,2.100707c.805267-.459462,1.80641.122604,1.80641,1.050475h2.41822Zm-2.41822,7.432398c0,.427058-.224894.822437-.592464,1.040077l1.233292,2.080152C255.325317,70.762048,256,69.575911,256,68.29498h-2.41822Z" fill="#3f2bb4"/></g></g></g><g><g transform="translate(-355-335)"><g transform="translate(355 325)"><g transform="translate(0 10)"><g mask="url(#ecorZi8pSlq23)"><polygon points="128,148 0,84 0,64 128,128" fill="#fff" fill-rule="evenodd"/><polygon points="128,148 256,84 256,64 128,128" fill="#fff" fill-rule="evenodd"/><polygon points="0,64 128,0 256,64 128,128" fill="#fff" fill-rule="evenodd" stroke="#482db3"/><path d="M128,0.559017l127.5,63.75v19.381966l-127.5,63.75-127.5-63.75v-19.381966l127.5-63.75Z" fill="none" fill-rule="evenodd" stroke="#482db3"/><mask id="ecorZi8pSlq23" mask-type="luminance"><use width="256" height="148" xlink:href="#ecorZi8pSlq2" fill="#fff" fill-rule="evenodd"/></mask></g></g></g></g></g><g transform="translate(50 44)"><path id="ecorZi8pSlq26" d="M32,37L0,21L0,16L32,32Z" fill="#342182" fill-rule="evenodd"/><path id="ecorZi8pSlq27" d="M32,37L64,21L64,16L32,32Z" fill="#6740ff" fill-rule="evenodd"/><g id="ecorZi8pSlq28_to" transform="translate(32,16)"><polygon id="ecorZi8pSlq28" points="0,16 32,0 64,16 32,32" transform="translate(-32,-16)" fill="#482db3" fill-rule="evenodd"/></g></g><g transform="translate(96 20)"><g transform="translate(-405-559)"><g transform="translate(355 515)"><g transform="translate(50 44)"><path id="ecorZi8pSlq33" d="M32,37L0,21L0,16L32,32Z" fill="#342182" fill-rule="evenodd"/><path id="ecorZi8pSlq34" d="M32,37L64,21L64,16L32,32Z" fill="#6740ff" fill-rule="evenodd"/><g id="ecorZi8pSlq35_to" transform="translate(32,16)"><polygon id="ecorZi8pSlq35" points="0,16 32,0 64,16 32,32" transform="translate(-32,-16)" fill="#482db3" fill-rule="evenodd"/></g></g></g></g></g><g transform="translate(-311-491)"><g transform="translate(355 515)"><g transform="translate(50 44)"><path id="ecorZi8pSlq39" d="M32,37L0,21L0,16L32,32Z" fill="#342182" fill-rule="evenodd"/><path id="ecorZi8pSlq40" d="M32,37L64,21L64,16L32,32Z" fill="#6740ff" fill-rule="evenodd"/><g id="ecorZi8pSlq41_to" transform="translate(32,16)"><polygon id="ecorZi8pSlq41" points="0,16 32,0 64,16 32,32" transform="translate(-32,-16)" fill="#482db3" fill-rule="evenodd"/></g></g></g></g><g transform="translate(140 44)"><g transform="translate(-405-559)"><g transform="translate(355 515)"><g transform="translate(50 44)"><path id="ecorZi8pSlq46" d="M32,37L0,21L0,21L32,37.03332Z" fill="#342182" fill-rule="evenodd"/><path id="ecorZi8pSlq47" d="M32,37L64,21L64,21L32,37.077259Z" fill="#6740ff" fill-rule="evenodd"/><g id="ecorZi8pSlq48_to" transform="translate(32,21)"><polygon id="ecorZi8pSlq48" points="0,16 32,0 64,16 32,32" transform="translate(-32,-16)" fill="#482db3" fill-rule="evenodd"/></g></g></g></g></g><g id="ecorZi8pSlq49_to" transform="translate(198,80)"><g transform="translate(-28.985537,-21.912548)"><g transform="translate(-529-760)"><g transform="translate(531.958 762)"><path d="M0.523961,2.191393L51.554642,14.210729c.009346,1.76842-.640406,3.291991-1.946973,4.571589-.30875.302376-1.724603.594231-3.102573.930939-.853752.208616-1.707502.417688-2.352157.61914-1.215957.379981-3.212695.879018-5.989077,1.498218v0l-.746462.165238c-2.165121.475842-4.759095,1.017431-7.781919,1.624792-3.857023,8.551068-5.879211,13.03987-6.456192,13.740063-.781987.948977-1.729701,1.961201-3.28574,1.961201-1.535713,0-2.629724-.402522-3.57237-2.003598-.425418-.722568-3.059479-5.820918-6.060156-11.70818L9.8993,24.900103c-.302705-.594464-.608341-1.195382-.915063-1.799167v0l-.686425-1.352479c-.152581-.300915-.305092-.601881-.457247-.902341v0l-.455589-.900248c-.851524-1.683749-1.686589-3.34142-2.465147-4.895077l-.758238-1.5161-.385996-.774408C1.954466,9.101861,0.627433,6.411428,0.540633,6.049446c-.046746-1.191398-.052254-2.477416-.016672-3.858053v0Z" fill="#fff" fill-rule="evenodd" stroke="#000"/><path d="M29.669639,19.989807c-.359749.07755-.641971.272919-.753975.521983L22.492103,34.757109c-.338208.7233-1.298996,1.22142-2.399792,1.242304-1.098645.019388-2.09604-.442952-2.490233-1.152813L0.194271,2.404825c-.338208-.654692-.101245-1.385475.609654-1.877639s1.766424-.656219,2.712145-.422068L50.376415,12.156676c1.02756.272919,1.693188.963407,1.665174,1.724008-.030159.762089-.749673,1.427242-1.79444,1.661394l-20.57751,4.447729Z"/><path d="M0.234715,-0.295006c.921581-.638018,2.288774-.875824,3.530431-.56836v0L50.633113,11.190185c.686627.182367,1.248459.510421,1.647751.907021.485915.482638.743988,1.068875.760734,1.675181.128231,2.369883-.664823,4.397523-2.384387,6.081594-.38178.373899-2.050456.889865-3.796064,1.316406-.82045.200478-1.64127.400131-2.260802.593732-1.240587.387678-3.277258.898765-6.112289,1.531043v0l-.748676.165727c-2.047853.450069-4.478052.958791-7.291171,1.527453-3.474567,8.191211-5.529079,12.619708-6.11131,13.326273-1.057491,1.283314-2.387379,2.507294-4.44335,2.507294-2.096621,0-3.581248-.562166-4.864976-2.742566-.470767-.799593-3.631976-6.924573-7.013514-13.574677v0l-.368409-.724863-.915662-1.804715v0l-.228797-.451659-.455774-.900611c-1.136629-2.247499-2.243964-4.448587-3.227304-6.418983v0l-.386343-.775106c-1.975896-3.96933-3.335677-6.880142-3.379609-7.177743-.038176-.81263-.050233-1.397139-.053111-1.908529.002987-.883979.016008-1.420116.026971-1.857895-.031274-.993167.084987-1.367699.264452-1.723024.197735-.3915.508911-.755852.943242-1.056544Z" fill="none" fill-rule="evenodd" stroke="#fff" stroke-width="2"/></g></g></g></g><g transform="translate(259.981073 117.999836)"><g transform="translate(-623-1066)"><g transform="translate(355 1057)"><g transform="translate(268 9)"><line x1="117" y1="60" x2="0.5" y2="60" fill="none" fill-rule="evenodd" stroke="#000" stroke-width="2"/><path d="M142.7263,0c1.55342,0,2.961449.918033,3.58605,2.339537v0l5.069582,11.509392C152.456169,16.285162,153,18.872403,153,21.535043v0v7.53311c0,1.736543-1.020381,3.238823-2.490337,3.946853C151.990439,33.803811,153,35.362606,153,37.152978v0v7.191259c0,2.581864-2.099966,4.684518-4.684519,4.684518v0h-26.822831v6.601361l1.881899-.002692c.996121,0,1.806499.810378,1.806499,1.806499v0v4.759905c0,.996121-.810378,1.806499-1.806499,1.806499v0h-4.751786c-.996121,0-1.806499-.810378-1.806499-1.806499v0-1.887275h-22.892243c-.271916,0-.492678-.220762-.492678-.492678s.220762-.492677.492678-.492677v0l22.892243.002692v-1.887275c0-.996121.810378-1.806499,1.806499-1.806499v0h1.884587v-6.601361h-26.822831C91.102654,49.028755,89,46.928789,89,44.344237v0-7.191259c0-1.79306,1.012318-3.349167,2.490337-4.137972C90.020381,32.306907,89,30.807315,89,29.068153v0-7.196084c0-2.851416.654202-5.715928,1.895339-8.284352v0L96.379415,2.215685C97.030929,0.869581,98.41742,0,99.911636,0v0ZM123.377099,56.612797h-4.751786c-.45229,0-.821129.368833-.821129.82113v0v4.75985c0,.45229.368832.821129.821129.821129v0h4.751786c.45229,0,.82113-.368832.82113-.821129v0-4.75985c0-.45229-.368833-.82113-.82113-.82113v0Zm24.938727-23.161454h-54.628481c-2.040694,0-3.701838,1.661143-3.701838,3.701837v0v7.188502c0,2.043451,1.661144,3.701838,3.701838,3.701838v0l54.625724.002692c2.040694,0,3.701906-1.661144,3.701906-3.701838v0-7.191194c0-2.040694-1.661143-3.701837-3.699149-3.701837v0Zm-5.931996,3.83355c1.908778,0,3.462197,1.55342,3.462197,3.462198s-1.553419,3.462198-3.462197,3.462198-3.462198-1.55342-3.462198-3.462198s1.55342-3.462198,3.462198-3.462198Zm-45.643888.632699c.271916,0,.489986.220762.492678.492677v0v4.673698c0,.271916-.220762.492678-.492678.492678s-.492677-.220762-.492677-.492678v0-4.673698c0-.271915.220762-.492677.492677-.492677Zm7.796389,0c.271916,0,.492678.220762.492678.492677v0v4.673698c0,.271916-.220762.492678-.492678.492678s-.492677-.220762-.492677-.492678v0-4.673698c0-.271915.220762-.492677.492677-.492677Zm7.799835,0c.271916,0,.489986.220762.492678.492677v0v4.673698c0,.271916-.220762.492678-.492678.492678s-.492677-.220762-.492677-.492678v0-4.673698c0-.271915.220762-.492677.492677-.492677Zm7.796389,0c.271916,0,.492678.220762.492678.492677v0v4.673698c0,.271916-.220762.492678-.492678.492678s-.492678-.220762-.492678-.492678v0-4.673698c0-.271915.220763-.492677.492678-.492677Zm7.799835,0c.271916,0,.489985.220762.492678.492677v0v4.673698c0,.271916-.220762.492678-.492678.492678s-.492677-.220762-.492677-.492678v0-4.673698c0-.271915.220762-.492677.492677-.492677Zm14.45144.352601c-1.364989,0-2.476898,1.111909-2.476898,2.476898s1.111909,2.476897,2.476898,2.476897c1.367676,0,2.476897-1.111909,2.476897-2.476897s-1.111909-2.476898-2.476897-2.476898Zm9.302831-20.150623h-61.297316c-.263845,1.233072-.403838,2.493024-.403838,3.752977v0v7.196083c0,1.873835,1.523783,3.397619,3.400306,3.397619v0h.301532l54.625724.002692h.301531c1.876523,0,3.400513-1.526471,3.400513-3.400306v0-7.532632c0-1.157672-.113072-2.296461-.328452-3.416433v0Zm-9.302831,4.492646c1.908778,0,3.462197,1.550731,3.462197,3.462198c0,1.908778-1.553419,3.462197-3.462197,3.462197s-3.462198-1.553419-3.462198-3.462197s1.55342-3.462198,3.462198-3.462198Zm-45.643888.629942c.271916,0,.489986.220762.492678.492677v0v4.673698c0,.271916-.220762.492678-.492678.492678s-.492677-.220762-.492677-.492678v0-4.673698c0-.271915.220762-.492677.492677-.492677Zm7.796389,0c.271916,0,.492678.220762.492678.492677v0v4.673698c0,.271916-.220762.492678-.492678.492678s-.492677-.220762-.492677-.492678v0-4.673698c0-.271915.220762-.492677.492677-.492677Zm7.799835,0c.271916,0,.489986.220762.492678.492677v0v4.673698c0,.271916-.220762.492678-.492678.492678s-.492677-.220762-.492677-.492678v0-4.673698c0-.271915.220762-.492677.492677-.492677Zm7.796389,0c.271916,0,.492678.220762.492678.492677v0v4.673698c0,.271916-.220762.492678-.492678.492678s-.492678-.220762-.492678-.492678v0-4.673698c0-.271915.220763-.492677.492678-.492677Zm7.799835,0c.271916,0,.489985.220762.492678.492677v0v4.673698c0,.271916-.220762.492678-.492678.492678s-.492677-.220762-.492677-.492678v0-4.673698c0-.271915.220762-.492677.492677-.492677Zm14.45144.35267c-1.364989,0-2.476898,1.111909-2.476898,2.476898s1.111909,2.476897,2.476898,2.476897c1.367676,0,2.476897-1.111909,2.476897-2.476897s-1.111909-2.476898-2.476897-2.476898Zm.339713-22.609045h-42.814664c-1.119972,0-2.156461.651583-2.643756,1.661143v0L91.781185,14.016128c-.481926.998809-.864226,2.043382-1.154984,3.117591v0l60.841745.002692c-.247703-.982682-.573453-1.949167-.988057-2.888772v0L145.410375,2.738454c-.46839-1.066152-1.523783-1.752671-2.686832-1.752671v0Z"/><path id="ecorZi8pSlq61" d="M0.500001,60.000001L0.5,60" fill="none" fill-rule="evenodd" stroke="#fc208a" stroke-width="2"/></g></g></g></g><g transform="translate(205.46195 71.451753)"><g id="ecorZi8pSlq100_to" transform="translate(55.019124,106.634702)"><g id="ecorZi8pSlq100_ts" transform="scale(0,0)"><ellipse id="ecorZi8pSlq100" rx="11.019123" ry="11.019123" transform="translate(0,0)" fill="#fc208a" stroke-width="0"/></g></g></g></svg>